PathFileType	4	(X/Y/Z)	C:\Users\chris\Documents\GitHub\baseballds\vids\pitch5_Sports2D\pitch5_Sports2D_m_person02.trc
DataRate	CameraRate	NumFrames	NumMarkers	Units	OrigDataRate	OrigDataStartFrame	OrigNumFrames
30	30	11	22	m	30	0	149
Frame#	Time	Hip			RHip			RKnee			RAnkle			RBigToe			RSmallToe			RHeel			LHip			LKnee			LAnkle			LBigToe			LSmallToe			LHeel			Neck			Head			Nose			RShoulder			RElbow			RWrist			LShoulder			LElbow			LWrist		
		X1	Y1	Z1	X2	Y2	Z2	X3	Y3	Z3	X4	Y4	Z4	X5	Y5	Z5	X6	Y6	Z6	X7	Y7	Z7	X8	Y8	Z8	X9	Y9	Z9	X10	Y10	Z10	X11	Y11	Z11	X12	Y12	Z12	X13	Y13	Z13	X14	Y14	Z14	X15	Y15	Z15	X16	Y16	Z16	X17	Y17	Z17	X18	Y18	Z18	X19	Y19	Z19	X20	Y20	Z20	X21	Y21	Z21	X22	Y22	Z22
0	0.0	1.6180665136970112	1.302208971417901	0.0	1.574022745521519	1.2847144954157574	0.0	1.5059513750947615	1.115463481702418	0.0	1.6967062079904318	1.0546147318143093	0.0	1.7847062319116953	1.0720476007151223	0.0	1.8879126042808794	0.9783721725796864	0.0	1.6064461230925078	1.0408958835678612	0.0	1.5516641133681257	1.2955854851532722	0.0	1.6584845379352438	1.2523727718147157	0.0	1.5994932562769202	1.0490296560362846	0.0	1.640024743197754	1.0200021880345382	0.0	1.6357012531349815	0.9958423614884047	0.0	1.5592820853637024	1.0322388089795547	0.0	1.6468971209385572	1.475719968144477	0.0	1.7122100445937918	1.575951712244855	0.0	1.8318392503986087	1.5115855832483418	0.0	1.6573603700603892	1.4137439898089945	0.0	1.7239715441764696	1.359988068038018	0.0	1.7490777770075026	1.5133158543713112	0.0	1.633387326328188	1.4459242843118805	0.0	1.881159392893427	1.4723603946577748	0.0	2.0168036390723985	1.4537961486802888	0.0
1	0.03333333333333333	1.6370209743679487	1.2950314075204965	0.0	1.6005886873391753	1.2793537434930158	0.0	1.5363142406870811	1.1143595805736615	0.0	1.6941058287546227	1.057536747702107	0.0	1.7729400104469297	1.0689408549443102	0.0	1.8640762454573323	0.9873892767317981	0.0	1.6131980990763306	1.0460877063913592	0.0	1.5753263739717083	1.2886408616165117	0.0	1.675840035788696	1.2366418272454913	0.0	1.6264556185751045	1.0442034590798266	0.0	1.6666798246632208	1.0175895279212548	0.0	1.661874430420232	0.9962048732477937	0.0	1.590236483801965	1.0270216799396554	0.0	1.6641078490710233	1.4647593859025225	0.0	1.7232360517476477	1.5612286627714151	0.0	1.8302954535067244	1.5004180284708577	0.0	1.6784656515343486	1.4079608884868522	0.0	1.7402399300072744	1.3530553857502579	0.0	1.7604406561350145	1.4876130836854773	0.0	1.6477075096424134	1.4373373567879437	0.0	1.8666276401941138	1.4523164798080783	0.0	1.9971087405604537	1.4354054346450595	0.0
2	0.06666666666666667	1.6559717770389817	1.2878535963240594	0.0	1.627151893321799	1.2739908954267385	0.0	1.5666782556097576	1.113256380703735	0.0	1.6915096952381314	1.0604608906508046	0.0	1.761170890508643	1.0658379549780828	0.0	1.8402379694040414	0.9964022066360102	0.0	1.6199476154402839	1.051281772046239	0.0	1.5989839738672038	1.2816956280350307	0.0	1.6931926773620192	1.2209105628858794	0.0	1.6534170763955236	1.0393772846826799	0.0	1.6933312404864702	1.0151678302753828	0.0	1.688043436941307	0.9965614748479067	0.0	1.62118913819639	1.0218040932716972	0.0	1.6813170234595058	1.453805074566635	0.0	1.7342641883173184	1.5465118373062432	0.0	1.8287548528204016	1.4892552801387124	0.0	1.6995688642542963	1.4021805165198842	0.0	1.756507630748218	1.3461201643363727	0.0	1.771802725171108	1.4619080611431938	0.0	1.662027859277971	1.4287573648106733	0.0	1.8520883457808976	1.4322859888997281	0.0	1.9774054333018851	1.417015446994628	0.0
3	0.1	1.6749222553437249	1.2806656750696497	0.0	1.6537038665549981	1.2686113489370647	0.0	1.597071937348781	1.1121425497234567	0.0	1.6890308836964605	1.0634289584494996	0.0	1.7494733733988812	1.062805197323069	0.0	1.8164932357216181	1.0054388705374215	0.0	1.6267627995168128	1.0565220042632681	0.0	1.622643738924353	1.2747382341675075	0.0	1.710549135296349	1.205188744913295	0.0	1.6803543145353816	1.0345467229392167	0.0	1.7199487964746893	1.0127049775725334	0.0	1.7141827115587147	0.9968851107926098	0.0	1.6521055352441794	1.016585173872547	0.0	1.6985443282613792	1.4428599306545926	0.0	1.7453270166077912	1.5318134327705721	0.0	1.827270933568808	1.478094738403773	0.0	1.7206717985967526	1.3963964180804522	0.0	1.7727808005778811	1.3391728886826357	0.0	1.7832068766396902	1.436180250789812	0.0	1.6763737573919604	1.4201723632316705	0.0	1.8375801867673183	1.4123125365250815	0.0	1.9576746052761709	1.3986206191975004	0.0
4	0.13333333333333333	1.6938770496531912	1.273465147163787	0.0	1.6802293406228606	1.2632148872123117	0.0	1.6274937000491911	1.1110058782223888	0.0	1.6867536575106936	1.0664669277979235	0.0	1.7379343054330143	1.0598874091678068	0.0	1.7929520963689516	1.0145350935408683	0.0	1.633709556724584	1.0618341299822345	0.0	1.6463142224176786	1.2677660484009186	0.0	1.7279147885408543	1.1894977982523722	0.0	1.707230908077585	1.0297112689012706	0.0	1.7465018407677724	1.0102123698490122	0.0	1.740268192806873	0.9971764606546103	0.0	1.6829399642912086	1.0113698618778033	0.0	1.7158012916075984	1.4319080139373161	0.0	1.7564364322407893	1.5171286856068276	0.0	1.8258787671877155	1.4669219178720145	0.0	1.74176945943141	1.3905955458843506	0.0	1.7890559854728434	1.3322208637900628	0.0	1.7946863280641159	1.4104395889648653	0.0	1.6907566249031214	1.4115487212702351	0.0	1.8231798351281427	1.3923927035333652	0.0	1.9379490773278136	1.380226292066757	0.0
5	0.16666666666666666	1.7128426781861985	1.2662920682356813	0.0	1.7067636190651032	1.2578714883434083	0.0	1.6578186060194018	1.1098803350665618	0.0	1.6842575616191462	1.0694126521093237	0.0	1.7263279451292146	1.0568282078683084	0.0	1.7693161597219527	1.0236229975435673	0.0	1.6405696221191024	1.0670464453588873	0.0	1.6699951652381366	1.260827670654872	0.0	1.7452792507043375	1.1738160110896418	0.0	1.734118213155635	1.0248887249609402	0.0	1.7731075128398426	1.0078736513791633	0.0	1.7664054216842817	0.9975752526711558	0.0	1.7138065569510832	1.0061678792199251	0.0	1.7330225730827393	1.4208959023173735	0.0	1.7674571998030328	1.5023748365933915	0.0	1.8243702027203414	1.455714048474664	0.0	1.7628597402766368	1.3847817349175742	0.0	1.8053079298529109	1.32532105771701	0.0	1.8060935907962394	1.3847896477644723	0.0	1.705079566657577	1.4028772755177457	0.0	1.8088231337639271	1.37228167817059	0.0	1.918373021978768	1.3618566253812572	0.0
6	0.2	1.7318097857126968	1.2592340043103927	0.0	1.7334541483528096	1.2527137386608673	0.0	1.6878222530751157	1.1088922558595125	0.0	1.6803185506441536	1.071827798529503	0.0	1.7137835156847014	1.05291451076208	0.0	1.7444577424087835	1.032392507364112	0.0	1.6465952644041417	1.0717041018981646	0.0	1.6936449471452615	1.2540275056102903	0.0	1.7625973216131232	1.1579913027342277	0.0	1.7613398072035804	1.020114745056446	0.0	1.8001462733209603	1.005976901682045	0.0	1.792919263229128	0.9983417383987923	0.0	1.7451574635534735	1.0009717818497148	0.0	1.7500278496180215	1.4098030056930138	0.0	1.7780745535407416	1.487418450470344	0.0	1.8221731655122193	1.4445009320561757	0.0	1.7839664487035216	1.3790282295899332	0.0	1.821508365122378	1.3185429234205113	0.0	1.8169819247294114	1.3593723675267642	0.0	1.7191029483778273	1.3943115554087424	0.0	1.7939958946222037	1.351532774917362	0.0	1.8990487769637974	1.34352795569991	0.0
7	0.23333333333333334	1.7507252895208028	1.2522524559203914	0.0	1.760395887686953	1.2476350829761598	0.0	1.717715774991141	1.1081067021327506	0.0	1.6747741948024735	1.0737129071352014	0.0	1.6998119114924852	1.04811030150748	0.0	1.7177753012387196	1.0406040981767244	0.0	1.651489306625256	1.0758250237140592	0.0	1.7171836765041335	1.2473151697251303	0.0	1.7798347845867277	1.141849334144395	0.0	1.7891388700544506	1.015366243550574	0.0	1.8277348739409551	1.0041281918228098	0.0	1.8198808396142514	0.9992534329652139	0.0	1.7772595979787857	0.99571846283022	0.0	1.7668085692140754	1.3988645241248752	0.0	1.7883838731121897	1.4724320199084615	0.0	1.8192712501853354	1.4334563526760489	0.0	1.8051428862349086	1.3734543193848832	0.0	1.8377310838785745	1.311727383163721	0.0	1.827260195357555	1.3339295834487945	0.0	1.7328677621840938	1.386189055299344	0.0	1.7780570645042078	1.330555523033007	0.0	1.8794354241695221	1.325149809024701	0.0
8	0.26666666666666666	1.76953560106671	1.2448280352140295	0.0	1.7870133814827291	1.2417576785756927	0.0	1.749041684730351	1.1070013461751025	0.0	1.6735691385247276	1.077307309750499	0.0	1.6879377905975685	1.045989408039841	0.0	1.6938940506461615	1.0493886965338175	0.0	1.6585090615064861	1.0817655485029984	0.0	1.7406716496684445	1.240062841523372	0.0	1.7971568083976444	1.1258387472632971	0.0	1.8163201581901678	1.0104178793509244	0.0	1.8541490123092326	1.0001131067208522	0.0	1.8457636882243007	0.9985613950714737	0.0	1.8083056534972213	0.9903271752916154	0.0	1.784268393168326	1.3886301468727036	0.0	1.8001719171086996	1.458423416607842	0.0	1.8185550891913982	1.4227567697021102	0.0	1.8263667316332413	1.367911433405983	0.0	1.8542586825597818	1.3042199888583577	0.0	1.8390371379333321	1.3072508562281797	0.0	1.7476742394940767	1.3783631559136598	0.0	1.762423690113703	1.3124051637995744	0.0	1.8579908021947837	1.3064691775057689	0.0
9	0.3	1.7884106566197366	1.2361772145914542	0.0	1.811735706160062	1.233969099046763	0.0	1.783632626074278	1.1042582361292057	0.0	1.6887511341171009	1.0868341286977672	0.0	1.6873103972499084	1.0534799989601447	0.0	1.6846143290847504	1.062103700034077	0.0	1.675319091320347	1.0938808224486098	0.0	1.7646306209233682	1.2313430561895966	0.0	1.8150498061169942	1.111696521766157	0.0	1.8393861951450468	1.0049623072284148	0.0	1.8755384641296085	0.9917645192610328	0.0	1.867323955274992	0.9941013607266109	0.0	1.8335219076392826	0.9849678232838138	0.0	1.804156291841078	1.3789360848967427	0.0	1.8163234089864795	1.4464137368111536	0.0	1.8255634287429297	1.4118477072798115	0.0	1.8473236363709422	1.3615100145904677	0.0	1.8712475889401834	1.2955981122447582	0.0	1.856757581985702	1.2783703792217804	0.0	1.765766714489435	1.3688336483019243	0.0	1.7530436796428515	1.3007559190024178	0.0	1.834567075620219	1.2874706621518994	0.0
10	0.3333333333333333	1.807894312174187	1.226471758977544	0.0	1.8333681815963636	1.2249978399475077	0.0	1.820934241948449	1.099286628580863	0.0	1.7258714379430322	1.1032020275120926	0.0	1.7052011628009627	1.0725694119464562	0.0	1.6997356941638233	1.0810571512740983	0.0	1.7074899514270094	1.1128906502616596	0.0	1.7893620215196224	1.2216186708068728	0.0	1.8341140160414788	1.1014656073833229	0.0	1.8549081362710933	0.999172722917494	0.0	1.8891643501956719	0.9816475880593802	0.0	1.8822930685633124	0.9870022666484158	0.0	1.8487122219330088	0.9803994351153383	0.0	1.8271191112801293	1.3682193639441074	0.0	1.8370180606254252	1.4356516300803486	0.0	1.8423185743826354	1.3996642813817288	0.0	1.867603095999646	1.3531413154450376	0.0	1.888080838001319	1.2871456281352696	0.0	1.8821865200874064	1.2498130383182042	0.0	1.787849325560694	1.3547514103122484	0.0	1.7575742169997335	1.2934733973974184	0.0	1.8167606025672285	1.2694170557000986	0.0
